<?xml version="1.0" standalone="no"?>
<!DOCTYPE svg PUBLIC "-//W3C//DTD SVG 20010904//EN"
 "http://www.w3.org/TR/2001/REC-SVG-20010904/DTD/svg10.dtd">
<svg version="1.0" xmlns="http://www.w3.org/2000/svg"
 width="4081.000000pt" height="4081.000000pt" viewBox="0 0 4081.000000 4081.000000"
 preserveAspectRatio="xMidYMid meet">
<metadata>
Created by potrace 1.11, written by Peter Selinger 2001-2013
</metadata>
<g transform="translate(0.000000,4081.000000) scale(0.100000,-0.100000)"
fill="#000000" stroke="none">
<path d="M19767 39794 c-226 -43 -362 -222 -402 -529 -4 -27 -8 -61 -10 -75
-2 -14 -7 -47 -10 -75 -4 -27 -8 -61 -10 -75 -18 -117 -25 -161 -30 -195 -3
-23 -8 -52 -10 -65 -3 -14 -7 -45 -10 -70 -3 -25 -8 -58 -12 -75 -3 -16 -7
-39 -9 -50 -2 -17 -15 -101 -29 -185 -8 -46 -24 -155 -29 -190 -3 -19 -13 -84
-21 -145 -9 -60 -18 -126 -21 -145 -14 -110 -24 -173 -28 -178 -2 -1 -20 6
-40 17 -122 69 -259 132 -311 144 -151 34 -348 -8 -538 -116 -236 -132 -432
-337 -518 -539 -39 -90 -44 -115 -43 -205 3 -124 66 -226 170 -273 62 -29 139
-25 225 11 132 54 242 73 409 73 94 -1 150 -4 315 -19 28 -2 82 -7 120 -10 79
-7 196 -35 270 -66 166 -70 322 -227 433 -437 81 -155 180 -282 219 -282 25 0
154 69 201 107 67 55 96 90 142 172 238 425 666 639 1175 586 44 -5 82 -9 85
-10 3 -1 23 -5 45 -9 22 -5 85 -19 140 -33 177 -45 300 -29 334 42 18 37 23
137 10 196 -16 70 -82 201 -144 284 -108 146 -253 270 -468 399 -209 126 -272
147 -417 142 -66 -2 -115 -10 -160 -26 -67 -24 -176 -74 -220 -101 -14 -9 -56
-35 -93 -59 -37 -23 -70 -40 -73 -37 -3 3 17 77 44 164 58 183 64 231 46 368
-7 55 -16 127 -19 160 -4 33 -9 68 -11 79 -2 10 -6 44 -9 75 -4 31 -8 63 -10
71 -2 8 -7 38 -10 65 -4 28 -8 57 -10 65 -3 8 -7 33 -10 55 -7 41 -42 244 -49
280 -61 296 -80 366 -125 460 -100 208 -266 299 -474 259z"/>
<path d="M12155 36638 c-16 -4 -39 -10 -50 -12 -223 -43 -626 -177 -717 -238
-14 -10 -29 -18 -32 -18 -14 0 -176 -106 -251 -164 -101 -80 -262 -243 -359
-365 -91 -114 -246 -344 -318 -471 -14 -25 -52 -90 -83 -145 -57 -98 -149
-285 -174 -355 -7 -19 -17 -44 -21 -55 -50 -125 -110 -358 -134 -525 -22 -148
-28 -492 -12 -660 11 -116 41 -314 66 -435 12 -55 23 -111 26 -125 3 -14 7
-33 10 -42 3 -9 7 -26 9 -37 28 -146 166 -594 227 -741 201 -476 542 -862
1016 -1149 120 -72 236 -133 394 -205 31 -14 60 -26 63 -26 4 0 21 -7 38 -15
133 -61 623 -218 757 -242 14 -2 50 -10 80 -18 63 -16 235 -50 295 -59 23 -4
52 -9 65 -11 35 -7 136 -23 195 -30 28 -3 59 -8 70 -10 11 -2 52 -7 90 -10 39
-4 79 -8 90 -10 11 -2 56 -7 100 -10 44 -3 100 -8 125 -10 221 -20 914 -26
1145 -11 125 8 154 10 320 20 55 4 116 9 135 11 19 2 82 7 140 10 58 3 116 8
130 10 14 2 68 7 120 10 52 4 109 8 125 10 17 2 73 6 125 10 52 4 111 8 130
10 19 2 78 7 130 10 52 4 111 8 130 10 19 2 82 7 140 10 58 4 121 9 140 10 19
2 91 6 160 9 69 4 155 9 190 11 36 2 115 7 175 10 61 3 153 8 205 10 52 3 147
7 210 10 63 2 171 7 240 10 508 24 1389 38 1477 23 94 -16 222 -51 292 -80
128 -54 161 -76 185 -127 20 -44 21 -61 20 -336 0 -261 -8 -627 -19 -930 -3
-60 -7 -189 -10 -285 -3 -96 -7 -245 -10 -330 -21 -679 -25 -1035 -24 -2015 2
-2514 8 -4685 12 -4800 3 -71 9 -249 12 -395 4 -146 8 -314 10 -375 11 -342
16 -506 20 -640 2 -82 7 -233 10 -335 15 -520 29 -1338 40 -2285 6 -440 5
-1782 0 -1920 -2 -49 -6 -175 -10 -280 -4 -104 -8 -233 -10 -285 -28 -747 -24
-2150 9 -3034 7 -194 -49 -274 -204 -290 -30 -3 -278 -8 -550 -11 -510 -6
-678 -10 -860 -20 -247 -14 -270 -15 -425 -30 -147 -14 -175 -17 -260 -30 -16
-3 -48 -7 -70 -10 -129 -19 -394 -87 -640 -165 -71 -23 -137 -43 -145 -45 -8
-3 -115 -36 -238 -75 -122 -38 -235 -72 -250 -75 -15 -3 -36 -7 -47 -9 -11 -2
-47 -7 -80 -10 -59 -6 -59 -6 -38 11 394 325 635 500 888 644 117 66 294 183
335 221 14 13 39 34 55 46 73 56 247 235 389 402 109 127 356 457 414 552 109
177 202 463 228 693 3 28 7 61 9 75 13 83 23 289 30 595 4 143 8 303 11 355 5
110 15 4187 17 7080 1 2005 -3 2519 -28 3260 -4 107 -8 242 -10 300 -2 58 -6
182 -10 275 -3 94 -8 222 -10 285 -2 63 -6 158 -9 210 -3 52 -8 154 -12 225
-3 72 -7 150 -9 175 -25 381 -21 853 9 1161 4 35 9 84 11 109 7 70 16 152 20
180 2 14 7 58 10 98 4 41 8 81 10 90 3 16 11 102 20 212 2 25 7 97 10 160 3
63 8 131 11 151 2 20 6 54 9 75 12 120 34 193 115 393 139 342 243 501 405
617 85 60 90 67 131 184 20 58 41 111 46 118 8 9 3 12 -18 13 -16 1 -54 3 -84
5 -30 1 -113 3 -185 4 -165 2 -188 -4 -680 -173 -203 -70 -288 -93 -450 -122
-198 -36 -230 -43 -375 -81 -120 -31 -359 -107 -429 -136 -14 -6 -28 -12 -31
-13 -3 -1 -22 -9 -44 -18 -21 -9 -40 -17 -42 -17 -25 0 -516 -247 -522 -262
-2 -5 -9 -8 -14 -8 -25 0 -357 -213 -583 -374 -465 -332 -781 -660 -1017
-1058 -106 -181 -234 -461 -269 -593 -4 -16 -15 -55 -24 -85 -21 -72 -62 -250
-70 -303 -4 -23 -8 -44 -10 -47 -2 -3 -6 -34 -10 -70 -4 -36 -8 -72 -10 -80
-18 -98 -24 -476 -10 -665 5 -60 9 -155 9 -210 0 -87 -3 -106 -23 -142 -27
-47 -82 -77 -161 -87 -25 -4 -56 -9 -70 -11 -61 -10 -109 -16 -181 -20 -43 -3
-108 -12 -146 -21 -37 -9 -78 -18 -91 -20 -97 -18 -395 -104 -434 -125 -10 -5
-18 -8 -18 -5 0 4 -76 -24 -145 -53 -11 -5 -56 -24 -100 -42 -416 -173 -841
-480 -1141 -826 -203 -234 -432 -548 -520 -713 -16 -30 -32 -57 -35 -60 -9 -8
-104 -210 -134 -285 -53 -134 -97 -298 -130 -483 -16 -93 -50 -322 -60 -407
-4 -35 -13 -100 -30 -235 -3 -19 -7 -62 -10 -95 -3 -33 -8 -78 -10 -99 -3 -36
-10 -104 -20 -221 -13 -143 -18 -222 -19 -336 l-1 -126 38 -74 c38 -74 82
-129 145 -181 30 -25 38 -27 104 -23 109 6 200 54 291 152 150 160 310 315
406 393 24 19 48 40 55 45 26 24 176 135 246 182 345 230 748 387 1150 449 19
3 76 12 125 19 91 14 126 19 245 30 36 3 81 8 100 10 51 6 243 17 330 19 93 3
151 -19 221 -82 63 -56 70 -71 75 -146 2 -34 6 -101 9 -151 2 -49 7 -139 10
-200 2 -60 7 -168 10 -240 33 -691 41 -1573 16 -1675 -18 -71 -37 -109 -70
-139 -54 -49 -98 -60 -416 -106 -23 -3 -52 -8 -65 -10 -14 -3 -41 -7 -60 -10
-19 -2 -69 -12 -110 -21 -41 -9 -93 -20 -116 -24 -84 -18 -323 -83 -429 -118
-60 -20 -114 -37 -120 -38 -13 -2 -155 -53 -257 -92 -43 -17 -103 -44 -135
-62 -58 -33 -194 -119 -203 -130 -5 -5 -203 -146 -290 -206 -25 -17 -83 -52
-130 -76 -137 -73 -149 -80 -249 -154 -105 -78 -229 -200 -316 -309 -61 -77
-186 -261 -230 -340 -93 -166 -121 -217 -174 -323 -107 -213 -196 -440 -345
-877 -35 -104 -101 -289 -147 -410 -82 -221 -131 -379 -154 -502 -3 -16 -10
-50 -16 -78 -15 -67 -19 -333 -7 -420 35 -258 142 -498 262 -590 33 -25 42
-27 96 -22 123 11 291 122 320 213 21 65 108 245 153 314 100 156 234 301 378
410 46 34 90 65 99 68 8 3 17 9 20 13 9 13 233 127 310 157 82 33 225 82 253
87 10 2 51 13 91 24 71 20 112 29 151 36 11 2 65 12 120 23 139 29 295 53 420
68 33 3 68 8 77 9 9 2 49 7 89 10 40 4 80 8 89 10 9 2 52 6 96 10 43 3 97 8
119 10 22 2 76 6 120 10 44 3 94 8 110 10 103 12 237 20 345 20 190 0 235 -29
265 -172 12 -57 14 -303 11 -1543 -4 -1553 -9 -1874 -31 -2035 -2 -16 -7 -55
-10 -85 -3 -30 -7 -66 -9 -80 -3 -14 -9 -56 -15 -95 -20 -124 -22 -138 -57
-290 -93 -406 -163 -581 -312 -781 -141 -189 -307 -330 -723 -616 -31 -21 -68
-51 -82 -66 -24 -25 -137 -240 -137 -261 0 -5 10 -11 23 -14 12 -3 69 -22 127
-43 156 -55 165 -54 480 54 374 127 1020 357 1215 432 28 11 93 35 146 54 l97
34 10 -23 c10 -22 6 -26 -61 -68 -74 -46 -593 -347 -822 -478 -71 -40 -132
-76 -135 -80 -3 -3 -9 -8 -15 -10 -11 -4 -220 -123 -245 -139 -8 -6 -103 -61
-210 -123 -190 -111 -534 -315 -688 -408 -244 -148 -403 -247 -530 -331 -41
-26 -78 -48 -82 -48 -5 0 -10 -3 -12 -7 -1 -5 -52 -41 -113 -82 -237 -160
-516 -366 -765 -565 -119 -95 -299 -244 -310 -257 -3 -3 -43 -39 -90 -80 -47
-40 -90 -78 -96 -84 -237 -215 -569 -543 -721 -710 -45 -50 -122 -143 -171
-207 -109 -140 -148 -182 -227 -239 -159 -116 -262 -229 -328 -364 -33 -68
-73 -176 -82 -226 -3 -13 -7 -35 -10 -49 -15 -81 -28 -243 -27 -345 2 -127 38
-204 125 -263 151 -104 318 -87 460 46 59 56 230 254 417 482 74 91 137 167
140 170 3 3 48 54 100 115 127 147 223 248 485 511 349 350 391 380 1000 706
170 92 610 306 745 363 278 118 444 176 778 271 123 35 282 82 353 104 71 23
130 40 131 40 2 -1 21 5 43 13 65 26 497 157 560 172 25 5 128 32 175 45 63
17 264 59 315 65 28 4 57 8 65 10 8 2 38 7 65 10 28 3 66 8 85 11 19 2 64 6
100 9 93 6 198 15 250 20 25 3 72 7 105 10 33 3 78 7 100 10 75 8 149 15 365
32 190 15 653 7 755 -13 11 -2 45 -6 75 -9 30 -3 66 -7 80 -10 14 -2 95 -15
180 -29 547 -90 1049 -240 1540 -461 145 -65 405 -196 470 -237 14 -8 70 -42
125 -74 68 -40 124 -82 175 -134 123 -124 152 -199 175 -450 6 -68 6 -565 0
-825 -5 -228 -16 -579 -21 -685 -3 -52 -6 -314 -8 -582 l-3 -487 -27 -55 c-30
-62 -87 -118 -149 -146 -23 -10 -93 -35 -155 -55 -138 -44 -274 -106 -373
-170 -98 -64 -251 -219 -322 -327 -105 -158 -197 -367 -223 -508 -2 -14 -6
-34 -9 -46 -23 -103 -24 -323 -1 -434 1 -8 6 -33 10 -55 27 -143 124 -361 231
-520 147 -218 288 -359 600 -600 109 -83 185 -183 200 -261 6 -35 7 -141 1
-169 -2 -11 -11 -47 -19 -80 -37 -144 -52 -296 -36 -379 4 -23 9 -56 12 -73
15 -99 111 -224 202 -264 121 -54 291 -14 405 94 42 40 80 86 80 97 0 5 4 10
8 10 10 0 64 104 92 179 29 74 50 181 50 248 0 65 53 221 131 380 61 126 109
177 244 257 120 72 187 119 280 200 80 70 179 169 203 206 9 14 32 45 50 69
66 88 135 247 163 376 14 67 18 284 7 386 -8 69 -56 317 -64 331 -3 4 -14 41
-24 82 -25 95 -106 346 -130 400 -35 81 -151 174 -255 205 -163 50 -353 162
-476 283 -116 115 -166 181 -223 294 -62 124 -64 144 -61 531 18 1885 16 1817
60 2116 2 15 7 47 10 70 3 23 8 55 11 70 l6 28 51 -50 c88 -83 130 -123 227
-211 51 -47 106 -98 123 -113 120 -115 245 -180 331 -170 89 9 205 87 445 297
84 73 289 246 336 284 410 324 661 505 865 622 91 53 449 234 620 314 426 200
694 344 935 501 206 135 288 185 431 266 115 64 595 309 607 309 3 0 66 29
142 65 75 36 138 65 139 65 2 0 46 20 100 45 53 25 97 45 98 44 2 0 54 25 116
55 62 31 114 56 117 56 2 0 44 19 92 43 169 83 434 184 653 251 119 36 331 92
383 102 17 2 33 7 37 9 4 2 22 7 41 10 19 3 41 8 49 10 8 2 26 6 40 9 14 2 86
16 160 30 74 14 153 28 175 31 38 6 57 9 115 19 14 3 61 10 105 16 44 6 91 13
105 15 22 4 72 10 165 20 44 5 115 14 155 20 19 2 62 7 95 11 33 3 71 7 85 9
31 4 143 16 190 20 33 3 97 10 180 20 19 2 71 7 115 11 44 4 94 8 110 10 205
19 676 22 1759 11 471 -5 485 -4 561 36 38 19 171 103 188 117 10 9 -102 216
-155 286 -42 56 -55 64 -179 105 -340 111 -548 312 -624 604 -29 111 -29 109
-25 575 3 232 -9 318 -84 616 -25 98 -47 193 -50 209 -3 17 -8 41 -11 54 -33
165 -50 1689 -31 2716 4 215 9 464 11 555 2 91 6 293 10 450 4 157 8 357 10
445 2 88 7 313 11 500 4 187 6 502 5 700 -4 688 -4 992 3 1350 4 198 9 457 12
575 5 270 5 1191 0 1285 -2 39 -7 140 -11 225 -3 85 -8 180 -10 210 -2 30 -6
101 -9 158 -3 56 -8 146 -11 200 -23 395 -20 1283 11 3147 11 678 12 818 19
1640 12 1425 9 2136 -10 2234 -2 11 -6 51 -10 88 -9 109 -34 287 -50 363 -3
14 -10 50 -16 80 -31 163 -166 629 -209 715 -5 11 -23 54 -39 95 -112 287
-322 682 -527 989 -27 40 -53 81 -59 90 -5 9 -12 18 -15 21 -3 3 -39 54 -80
113 -70 101 -118 166 -229 312 -269 352 -625 697 -948 919 -276 189 -659 389
-1018 529 -328 129 -692 238 -940 282 -208 36 -259 45 -310 50 -33 4 -67 9
-76 10 -31 6 -168 21 -274 30 -33 3 -78 7 -100 10 -22 2 -80 7 -130 10 -49 4
-110 8 -135 11 -25 2 -88 6 -140 9 -52 4 -120 8 -150 10 -279 21 -639 24
-1785 12 -971 -11 -1381 -17 -1470 -22 -203 -12 -1072 -20 -1227 -11 -96 6
-214 16 -253 22 -74 12 -125 21 -187 32 -25 5 -77 8 -115 7 -81 -2 -135 -25
-203 -86 -96 -86 -145 -93 -855 -114 -275 -8 -582 -21 -750 -31 -72 -4 -210
-17 -305 -29 -38 -5 -97 -12 -175 -20 -27 -3 -66 -8 -85 -10 -124 -15 -355
-21 -1135 -30 -1277 -15 -1897 -28 -2260 -50 -393 -23 -850 -23 -1030 0 -16 2
-50 7 -75 10 -50 6 -202 31 -240 40 -14 3 -38 8 -55 11 -115 20 -324 93 -470
165 -198 96 -344 282 -429 541 -40 123 -47 163 -51 288 -4 169 33 279 142 425
65 87 67 89 182 215 213 233 228 255 275 403 l24 78 -26 10 c-15 6 -54 21 -87
34 -73 29 -111 35 -150 23z m10513 -5783 c73 -3 142 -8 155 -10 12 -2 69 -6
127 -10 58 -3 128 -8 155 -10 28 -3 102 -7 165 -10 63 -3 153 -8 200 -10 47
-3 141 -7 210 -10 237 -10 365 -16 420 -20 30 -2 109 -7 175 -10 97 -5 281
-23 410 -40 246 -33 592 -161 795 -293 143 -94 334 -262 409 -362 14 -19 34
-44 44 -55 88 -96 216 -545 281 -990 4 -23 8 -50 10 -61 2 -11 7 -50 10 -86 4
-37 8 -75 10 -85 2 -10 7 -56 11 -103 4 -47 9 -98 10 -115 25 -260 25 -982 0
-1275 -2 -25 -7 -92 -10 -150 -4 -58 -8 -118 -10 -135 -26 -201 -26 -576 1
-820 7 -62 7 -287 0 -314 -16 -67 -39 -120 -60 -140 -14 -13 -71 -36 -142 -57
-66 -19 -141 -41 -169 -49 -116 -35 -632 -176 -659 -181 -16 -3 -32 -7 -36 -9
-6 -3 -308 -83 -402 -106 -21 -5 -55 -13 -75 -18 -21 -5 -121 -29 -223 -54
-102 -25 -206 -47 -230 -51 -95 -12 -188 -21 -335 -31 -38 -2 -113 -8 -165
-11 -216 -17 -385 -9 -680 31 -19 3 -53 7 -75 10 -40 4 -87 10 -155 20 -19 3
-55 7 -80 10 -25 3 -54 7 -66 9 -11 2 -45 7 -75 11 -85 10 -147 18 -229 30
-58 9 -100 14 -180 25 -47 6 -96 13 -110 15 -14 2 -45 6 -70 10 -25 4 -56 8
-70 10 -14 2 -52 7 -85 11 -33 3 -63 8 -66 10 -4 2 -65 6 -135 9 -121 5 -160
9 -209 19 -26 5 -174 54 -200 65 -117 53 -310 119 -425 146 -78 18 -150 40
-211 65 -41 17 -116 42 -167 55 -153 41 -206 78 -250 173 -27 61 -31 144 -13
297 6 46 8 304 5 605 -16 1829 -27 2540 -50 3210 -4 124 -8 290 -8 370 -1 132
1 149 21 187 36 66 96 98 198 107 28 3 64 7 80 10 17 2 57 7 90 11 72 7 126
14 180 20 22 3 64 8 94 11 30 3 63 7 73 9 11 2 46 7 79 10 33 4 69 8 80 10 11
2 50 7 87 11 36 3 74 7 83 9 9 2 52 6 95 10 43 4 81 9 84 10 3 2 46 6 95 10
50 4 98 9 108 11 10 2 60 6 110 9 51 4 112 9 137 11 25 2 115 6 200 10 85 3
156 7 157 8 5 4 349 -2 471 -9z m3589 -5693 c45 -24 70 -72 88 -167 5 -31 6
-259 1 -330 -16 -204 -20 -367 -18 -785 4 -1196 3 -2350 -2 -2520 -4 -102 -8
-252 -11 -335 -3 -82 -7 -240 -11 -350 -8 -259 -8 -304 -1 -400 4 -44 9 -132
13 -195 3 -63 7 -142 9 -175 11 -185 17 -328 21 -480 4 -189 6 -2386 2 -2390
-3 -2 -270 125 -338 160 -71 37 -430 181 -605 243 -181 63 -486 156 -552 168
-15 3 -30 7 -34 9 -6 4 -118 30 -179 41 -14 3 -33 7 -42 10 -16 5 -35 9 -88
19 -27 5 -60 12 -100 20 -14 2 -41 7 -60 10 -19 3 -46 7 -60 10 -14 2 -43 7
-65 10 -23 3 -50 7 -60 9 -11 2 -49 7 -85 11 -36 4 -74 9 -85 11 -11 2 -53 6
-94 10 -41 3 -89 7 -105 9 -193 25 -823 25 -1064 0 -20 -2 -66 -7 -102 -10
-86 -7 -140 -14 -225 -26 -38 -5 -89 -12 -111 -15 -23 -3 -53 -7 -65 -9 -13
-3 -51 -10 -84 -15 -94 -16 -116 -20 -175 -32 -30 -6 -62 -12 -70 -14 -8 -1
-24 -4 -35 -7 -11 -3 -72 -17 -135 -31 -63 -14 -142 -33 -175 -42 -33 -9 -85
-22 -115 -30 -30 -8 -59 -16 -65 -18 -45 -13 -102 -30 -110 -32 -5 -1 -71 -21
-145 -44 -219 -69 -481 -165 -725 -267 -71 -30 -136 -57 -142 -60 -10 -4 -13
788 -13 3941 0 3152 3 3944 13 3941 15 -6 491 -124 527 -131 14 -3 50 -11 80
-19 30 -8 69 -16 85 -19 17 -3 41 -8 55 -11 41 -10 162 -32 265 -50 17 -2 41
-7 55 -10 14 -3 63 -12 110 -20 47 -8 96 -17 110 -20 39 -8 262 -47 290 -51
27 -3 182 -31 215 -38 11 -2 52 -7 90 -12 39 -4 72 -8 75 -9 3 -1 34 -5 70
-10 36 -5 67 -9 70 -10 3 -1 39 -5 80 -9 41 -4 89 -9 105 -11 286 -33 464 -24
762 35 54 10 109 21 123 24 14 2 93 18 175 35 83 16 173 33 200 36 28 3 64 8
80 10 17 2 57 7 90 10 33 3 76 8 95 10 19 3 67 7 105 11 39 3 81 7 95 9 14 2
54 6 90 10 36 4 76 8 90 10 14 2 50 6 80 10 105 13 199 29 345 59 11 3 63 14
115 25 52 11 102 22 110 25 8 3 26 7 40 10 14 2 93 21 175 41 83 20 157 38
165 40 8 2 42 11 75 20 33 9 83 23 110 30 28 7 109 30 180 50 300 86 367 96
422 67z m-2737 -7906 c141 -7 192 -12 300 -28 41 -6 86 -12 100 -13 66 -7 274
-52 430 -91 74 -19 142 -37 150 -39 31 -7 241 -64 405 -110 162 -44 399 -115
695 -205 74 -23 219 -66 323 -96 209 -60 265 -85 326 -143 44 -42 87 -123 96
-181 3 -19 7 -1086 9 -2370 2 -1284 6 -2355 10 -2380 3 -25 8 -65 12 -90 11
-78 13 -227 3 -272 -16 -70 -63 -159 -114 -216 -81 -89 -173 -145 -404 -241
-69 -29 -143 -61 -165 -71 -339 -153 -776 -334 -981 -405 -131 -46 -296 -42
-454 11 -50 16 -549 263 -811 400 -230 121 -608 312 -710 358 -47 21 -107 49
-135 62 -83 38 -319 136 -337 139 -9 2 -25 8 -35 13 -81 44 -863 273 -1078
317 -11 2 -114 27 -230 54 -115 28 -219 53 -230 55 -94 18 -292 76 -360 104
-179 75 -229 207 -179 482 2 14 7 41 10 60 3 19 7 41 10 49 2 8 7 30 10 50 3
20 7 42 10 50 9 27 18 188 17 311 0 69 -4 420 -7 780 -7 757 -10 1275 -7 1375
1 39 -4 111 -12 160 -15 86 -15 390 -2 515 3 25 7 111 9 191 3 135 0 176 -19
299 -18 118 14 238 89 327 25 30 246 145 491 255 61 28 130 59 155 70 200 91
562 210 799 263 193 44 383 85 406 89 17 3 39 8 50 10 44 9 193 35 230 40 22
3 56 8 75 10 19 3 67 10 105 15 39 5 99 13 135 16 36 3 88 8 115 10 28 3 113
8 190 11 77 4 141 7 142 8 4 3 233 -2 363 -8z"/>
</g>
</svg>
